<svg width="48" height="48" viewBox="0 0 48 48" fill="none" xmlns="http://www.w3.org/2000/svg">
<path fill-rule="evenodd" clip-rule="evenodd" d="M30.629 9.433L24 14.2492L17.371 9.433C15.4004 10.3314 13.6422 11.6191 12.1959 13.1987L14.7265 20.9868L8.10009 25.8012C8.34564 27.9959 9.03482 30.0549 10.0762 31.8885H18.2686L20.8004 39.6804C21.8328 39.8898 22.9027 40 24 40C25.0973 40 26.1672 39.8898 27.1996 39.6804L29.7314 31.8885H37.9238C38.9652 30.0549 39.6544 27.9959 39.8999 25.8012L33.2735 20.9868L35.8041 13.1987C34.3578 11.6191 32.5996 10.3314 30.629 9.433ZM16.9328 5.28506C19.1328 4.4539 21.5157 4 24 4C26.4843 4 28.8672 4.4539 31.0672 5.28506C34.4507 6.56332 37.3935 8.7306 39.6131 11.4997C42.3573 14.9233 44 19.2725 44 24C44 24.3125 43.9928 24.6234 43.9786 24.9327C43.8083 28.6352 42.6303 32.0781 40.7131 34.9887C38.0751 38.9937 34.0339 41.9964 29.2822 43.2945C27.5973 43.7549 25.8257 44 24 44C22.1743 44 20.4027 43.7549 18.7178 43.2945C13.9661 41.9964 9.92489 38.9937 7.28686 34.9887C5.36969 32.0781 4.19165 28.6352 4.0214 24.9327C4.00718 24.6234 4 24.3125 4 24C4 19.2725 5.64273 14.9233 8.38687 11.4997C10.6065 8.7306 13.5493 6.56332 16.9328 5.28506ZM24 15.5279L32.0575 21.382L28.9798 30.8541H19.0202L15.9425 21.382L24 15.5279Z" fill="#0080FF"/>
</svg>
