<svg width="48" height="49" viewBox="0 0 48 49" fill="none" xmlns="http://www.w3.org/2000/svg">
<path d="M10.2654 6.25L8.26541 20.25H4V24.25H44V20.25H39.7346L37.7346 6.25H10.2654Z" fill="#0080FF"/>
<path fill-rule="evenodd" clip-rule="evenodd" d="M14 26.25C9.58172 26.25 6 29.8317 6 34.25C6 38.6683 9.58172 42.25 14 42.25C18.235 42.25 21.7013 38.9593 21.9817 34.7954C23.2239 34.0684 24.7759 34.0682 26.0183 34.7949C26.2983 38.959 29.7648 42.25 34 42.25C38.4183 42.25 42 38.6683 42 34.25C42 29.8317 38.4183 26.25 34 26.25C30.8347 26.25 28.0996 28.0876 26.8023 30.7548C24.9987 30.0816 23.0014 30.0817 21.1979 30.755C19.9006 28.0877 17.1654 26.25 14 26.25ZM10 34.25C10 32.0409 11.7909 30.25 14 30.25C16.1058 30.25 17.8332 31.8786 17.9885 33.9435C17.9961 34.0443 18 34.1465 18 34.25C18 36.4591 16.2091 38.25 14 38.25C11.7909 38.25 10 36.4591 10 34.25ZM30.0115 33.943C30.1671 31.8783 31.8943 30.25 34 30.25C36.2091 30.25 38 32.0409 38 34.25C38 36.4591 36.2091 38.25 34 38.25C31.7909 38.25 30 36.4591 30 34.25C30 34.1463 30.0039 34.044 30.0115 33.943Z" fill="#0080FF"/>
</svg>
