<svg width="48" height="48" viewBox="0 0 48 48" fill="none" xmlns="http://www.w3.org/2000/svg">
<path d="M28 20C25.7909 20 24 21.7909 24 24C24 26.2091 25.7909 28 28 28C30.2091 28 32 26.2091 32 24C32 21.7909 30.2091 20 28 20Z" fill="#0080FF"/>
<path fill-rule="evenodd" clip-rule="evenodd" d="M10.1716 6L8.17157 8H4V40H44V8H19.8284L17.8284 6H10.1716ZM20 24C20 19.5817 23.5817 16 28 16C32.4183 16 36 19.5817 36 24C36 28.4183 32.4183 32 28 32C23.5817 32 20 28.4183 20 24ZM14 20C15.1046 20 16 19.1046 16 18C16 16.8954 15.1046 16 14 16C12.8954 16 12 16.8954 12 18C12 19.1046 12.8954 20 14 20Z" fill="#0080FF"/>
</svg>
