<svg width="48" height="49" viewBox="0 0 48 49" fill="none" xmlns="http://www.w3.org/2000/svg">
<path fill-rule="evenodd" clip-rule="evenodd" d="M44 24.25C44 35.2957 35.0457 44.25 24 44.25C12.9543 44.25 4 35.2957 4 24.25C4 13.2043 12.9543 4.25 24 4.25C35.0457 4.25 44 13.2043 44 24.25ZM27 16.25C27 17.9069 25.6569 19.25 24 19.25C22.3431 19.25 21 17.9069 21 16.25C21 14.5931 22.3431 13.25 24 13.25C25.6569 13.25 27 14.5931 27 16.25ZM32.2573 23.459L31.7129 19.4962C31.4374 19.534 31.1616 19.5725 30.8856 19.611C28.6036 19.9292 26.3047 20.2498 24.003 20.2498C21.7016 20.2498 19.4029 19.9291 17.1211 19.6108C16.8454 19.5724 16.5699 19.5339 16.2946 19.4961L15.75 23.4588C17.8064 23.7415 19.8574 24.0226 21.9303 24.1668C21.8273 25.2194 21.6162 26.1357 21.2886 26.975C20.7822 28.2726 19.9516 29.5042 18.6058 30.8194L17.1755 32.2174L19.9713 35.078L21.4016 33.6801C22.4978 32.6088 23.3897 31.5094 24.0859 30.3333C24.7176 31.4556 25.5253 32.5452 26.554 33.6276L27.9318 35.0773L30.8312 32.3217L29.4534 30.872C27.4997 28.8163 26.5926 26.7981 26.2006 24.158C28.2318 24.0113 30.2418 23.7359 32.2573 23.459Z" fill="#0080FF"/>
</svg>
