<svg width="48" height="49" viewBox="0 0 48 49" fill="none" xmlns="http://www.w3.org/2000/svg">
<path fill-rule="evenodd" clip-rule="evenodd" d="M24 4.25C15.1634 4.25 8 11.4134 8 20.25V45.2831L17 41.4259L24 44.4259L31 41.4259L40 45.2831V20.25C40 11.4134 32.8366 4.25 24 4.25ZM22 21.25C22 22.9069 20.6569 24.25 19 24.25C17.3431 24.25 16 22.9069 16 21.25C16 19.5931 17.3431 18.25 19 18.25C20.6569 18.25 22 19.5931 22 21.25ZM29 24.25C30.6569 24.25 32 22.9069 32 21.25C32 19.5931 30.6569 18.25 29 18.25C27.3431 18.25 26 19.5931 26 21.25C26 22.9069 27.3431 24.25 29 24.25Z" fill="#0080FF"/>
</svg>
